<svg xmlns="http://www.w3.org/2000/svg" version="1.2" baseProfile="tiny" viewBox="298.48 187 203.06 226.04"><g stroke-width="0" fill="none"><path vector-effect="non-scaling-stroke" d="M337.87 250.94q-6.05 5.33-10.83 11.44M327.04 262.38c-37.31 48.02-19.91 117.36 35.41 142.21 20 8.98 44.37 10.59 65.64 3.61 28.43-9.33 48.55-29.43 59.45-57.23q.19-.49-.29-.72l-44.84-21.39q-.67-.32-.91.38-2.17 6.49-5.34 11.89c-7.27 12.38-20.53 20.35-35.02 20.67-21.42.46-38.08-14.04-42.63-34.53q-1.2-5.38-.2-14.17"/><path vector-effect="non-scaling-stroke" d="M358.31 313.1q1.87-9.86 7.27-17.3M365.58 295.8l34.19 55.83a.3.3 0 0 0 .51 0l25.17-40.96M425.45 310.67l9.1-14.98M434.55 295.69q2.2 2.95 2.9 4.58 2.24 5.18 4.28 10.25.15.37.51.19l44.99-21.45q.49-.23.3-.74-8.38-22.03-24.64-36.97a1.09 1.08 37.3 0 1-.19-1.37l38.29-62.19a.32.32 0 0 0-.27-.49h-58.16q-.51 0-.78.44l-32.9 53.41a.38.38 0 0 0 .24.57c7.69 1.82 15.25 3.55 22.46 6.81q23.11 10.43 36.07 32.75a.34.33-28 0 1-.15.47l-17.53 8.37a.84.84 0 0 1-1.07-.3q-15.58-24.15-44.11-27.26a1.1 1.08 77.1 0 1-.8-.51l-45.74-74.31a.95.92-15.3 0 0-.8-.44h-58.14a.33.33 0 0 0-.28.5l38.84 62.94"/><path vector-effect="non-scaling-stroke" d="M434.55 295.69q-4.09-6.55-10.61-10.59M423.94 285.1q-1.43-1.1-3.03-1.98-11.48-6.3-24.34-5.3a1.13 1.13 0 0 1-1.05-.54l-45.79-74.43a.75.74 73.8 0 0-.63-.35h-22.85a.33.33 0 0 0-.28.5l73.64 119.65a.5.5 0 0 0 .86 0l15.19-24.79"/><path vector-effect="non-scaling-stroke" d="M415.66 297.86q6.48 4.96 9.79 12.81M365.58 295.8l-8.37-13.43M357.21 282.37l-11.37-18.48M345.84 263.89l-7.97-12.95M423.94 285.1l-8.28 12.76M357.21 282.37q-6.25 6.41-9.5 14.21M345.84 263.89l-10.24 12.29M335.6 276.18l-8.56-13.8"/><path vector-effect="non-scaling-stroke" d="M335.6 276.18q-12.57 18.79-13.35 40.31c-1.44 39.97 27.83 75.27 67.74 80.31 31.22 3.94 61.44-10.81 77.26-38.23q.5-.88-.41-1.32l-16.94-8.13q-.6-.29-.96.27c-11.1 17.5-29.14 27.79-50.01 27.4-24.7-.46-45.98-16.36-53.41-39.83q-6.23-19.69 2.19-40.38M347.71 296.58l10.6 16.52M474.01 203.01a.34.34 0 0 0-.29-.52l-23.01.01a.34.34 0 0 0-.29.16l-18.06 29.3a.34.34 0 0 0 .14.49l17.62 8.81a.34.34 0 0 0 .44-.13l23.45-38.12"/></g><path fill="#fff" d="M434.55 295.69q-4.09-6.55-10.61-10.59-1.43-1.1-3.03-1.98-11.48-6.3-24.34-5.3a1.13 1.13 0 0 1-1.05-.54l-45.79-74.43a.75.74 73.8 0 0-.63-.35h-22.85a.33.33 0 0 0-.28.5l73.64 119.65a.5.5 0 0 0 .86 0l15.19-24.79q6.48 4.96 9.79 12.81l-25.17 40.96a.3.3 0 0 1-.51 0l-34.19-55.83-8.37-13.43-11.37-18.48-7.97-12.95L299.03 188a.33.33 0 0 1 .28-.5h58.14a.95.92-15.3 0 1 .8.44l45.74 74.31a1.1 1.08 77.1 0 0 .8.51q28.53 3.11 44.11 27.26a.84.84 0 0 0 1.07.3l17.53-8.37a.34.33-28 0 0 .15-.47q-12.96-22.32-36.07-32.75c-7.21-3.26-14.77-4.99-22.46-6.81a.38.38 0 0 1-.24-.57l32.9-53.41q.27-.44.78-.44h58.16a.32.32 0 0 1 .27.49l-38.29 62.19a1.09 1.08 37.3 0 0 .19 1.37q16.26 14.94 24.64 36.97.19.51-.3.74l-44.99 21.45q-.36.18-.51-.19-2.04-5.07-4.28-10.25-.7-1.63-2.9-4.58Zm39.46-92.68a.34.34 0 0 0-.29-.52l-23.01.01a.34.34 0 0 0-.29.16l-18.06 29.3a.34.34 0 0 0 .14.49l17.62 8.81a.34.34 0 0 0 .44-.13l23.45-38.12Z"/><path fill="#141414" d="m423.94 285.1-8.28 12.76-15.19 24.79a.5.5 0 0 1-.86 0L325.97 203a.33.33 0 0 1 .28-.5h22.85a.75.74 73.8 0 1 .63.35l45.79 74.43a1.13 1.13 0 0 0 1.05.54q12.86-1 24.34 5.3 1.6.88 3.03 1.98ZM474.01 203.01l-23.45 38.12a.34.34 0 0 1-.44.13l-17.62-8.81a.34.34 0 0 1-.14-.49l18.06-29.3a.34.34 0 0 1 .29-.16l23.01-.01a.34.34 0 0 1 .29.52Z"/><path fill="#8a898a" d="m337.87 250.94 7.97 12.95-10.24 12.29-8.56-13.8q4.78-6.11 10.83-11.44Z"/><path fill="#fff" d="m327.04 262.38 8.56 13.8q-12.57 18.79-13.35 40.31c-1.44 39.97 27.83 75.27 67.74 80.31 31.22 3.94 61.44-10.81 77.26-38.23q.5-.88-.41-1.32l-16.94-8.13q-.6-.29-.96.27c-11.1 17.5-29.14 27.79-50.01 27.4-24.7-.46-45.98-16.36-53.41-39.83q-6.23-19.69 2.19-40.38l10.6 16.52q-1 8.79.2 14.17c4.55 20.49 21.21 34.99 42.63 34.53 14.49-.32 27.75-8.29 35.02-20.67q3.17-5.4 5.34-11.89.24-.7.91-.38l44.84 21.39q.48.23.29.72c-10.9 27.8-31.02 47.9-59.45 57.23-21.27 6.98-45.64 5.37-65.64-3.61-55.32-24.85-72.72-94.19-35.41-142.21Z"/><path fill="#141414" d="m345.84 263.89 11.37 18.48q-6.25 6.41-9.5 14.21-8.42 20.69-2.19 40.38c7.43 23.47 28.71 39.37 53.41 39.83 20.87.39 38.91-9.9 50.01-27.4q.36-.56.96-.27l16.94 8.13q.91.44.41 1.32c-15.82 27.42-46.04 42.17-77.26 38.23-39.91-5.04-69.18-40.34-67.74-80.31q.78-21.52 13.35-40.31l10.24-12.29Z"/><path fill="#8a898a" d="m357.21 282.37 8.37 13.43q-5.4 7.44-7.27 17.3l-10.6-16.52q3.25-7.8 9.5-14.21ZM423.94 285.1q6.52 4.04 10.61 10.59l-9.1 14.98q-3.31-7.85-9.79-12.81l8.28-12.76Z"/></svg>