<svg version="1.1" xmlns="http://www.w3.org/2000/svg" xmlns:xlink="http://www.w3.org/1999/xlink" width="24px" height="24px" viewBox="0,0,256,256"><g fill="#61DBFB" fill-rule="evenodd" stroke="none" stroke-width="1" stroke-linecap="butt" stroke-linejoin="miter" stroke-miterlimit="10" stroke-dasharray="" stroke-dashoffset="0" font-family="none" font-weight="none" font-size="none" text-anchor="none" style="mix-blend-mode: normal"><g transform="scale(10.66667,10.66667)"><path d="M7.56641,1.41016c-0.52644,0.02837 -1.01128,0.16581 -1.44141,0.41406c-1.147,0.662 -1.81014,2.05841 -1.86914,3.94141c-0.02067,0.65202 0.03513,1.36939 0.15625,2.12891c-0.32239,0.16886 -0.62819,0.34495 -0.9043,0.5332c-1.454,0.992 -2.25781,2.25027 -2.25781,3.57227c0,1.322 0.80381,2.58027 2.25781,3.57227c0.29705,0.20252 0.63006,0.39034 0.98047,0.57031c-0.08716,0.66142 -0.12199,1.28917 -0.0957,1.86523c0.084,1.84 0.75634,3.213 1.90234,3.875c1.146,0.661 2.67064,0.55598 4.30664,-0.29102c0.43188,-0.2238 0.87487,-0.51294 1.32031,-0.83789c0.54307,0.42771 1.0819,0.78971 1.60547,1.07031c1.66,0.891 3.20066,1.01356 4.34766,0.35156c1.147,-0.662 1.81014,-2.05841 1.86914,-3.94141c0.02067,-0.65202 -0.03513,-1.36939 -0.15625,-2.12891c0.32239,-0.16886 0.62819,-0.34495 0.9043,-0.5332c1.454,-0.992 2.25781,-2.25027 2.25781,-3.57227c0,-1.322 -0.80381,-2.58027 -2.25781,-3.57227c-0.29705,-0.20252 -0.63006,-0.39034 -0.98047,-0.57031c0.08716,-0.66142 0.12199,-1.28917 0.0957,-1.86523c-0.084,-1.84 -0.75634,-3.213 -1.90234,-3.875c-1.146,-0.661 -2.67064,-0.55598 -4.30664,0.29102c-0.43188,0.2238 -0.87487,0.51294 -1.32031,0.83789c-0.54307,-0.42771 -1.0819,-0.78971 -1.60547,-1.07031c-1.0375,-0.55687 -2.02886,-0.8129 -2.90625,-0.76562zM7.83398,2.89063c0.58155,0.00942 1.23656,0.23555 1.92969,0.60742c0.36561,0.19599 0.73945,0.44775 1.11523,0.72461c-0.71278,0.6522 -1.41637,1.42852 -2.0918,2.29297c-1.0669,0.17483 -2.05901,0.43023 -2.94727,0.75586c-0.06335,-0.51202 -0.09831,-1.00533 -0.08398,-1.45898c0.039,-1.257 0.35314,-2.24745 1.11914,-2.68945c0.28725,-0.16575 0.61005,-0.23808 0.95898,-0.23242zM16,3.17578c0.3468,-0.00008 0.66783,0.07644 0.95508,0.24219c0.766,0.443 1.0983,1.41358 1.1543,2.64258c0.01668,0.36942 -0.00455,0.76659 -0.04102,1.17578c-0.85872,-0.30772 -1.81375,-0.55014 -2.83594,-0.71875c-0.64771,-0.84459 -1.31884,-1.60244 -2,-2.25781c0.28837,-0.19525 0.57517,-0.37334 0.85742,-0.51953c0.6825,-0.35375 1.33215,-0.56432 1.91016,-0.56445zM12.04883,5.1875c0.3537,0.33121 0.70475,0.7051 1.05273,1.0957c-0.36296,-0.0194 -0.72852,-0.0332 -1.10156,-0.0332c-0.35982,0 -0.71202,0.01513 -1.0625,0.0332c0.36745,-0.39943 0.73756,-0.76477 1.11133,-1.0957zM12,7.75c0.8306,0 1.63398,0.05592 2.40234,0.1543c0.44438,0.61595 0.8755,1.27149 1.2793,1.9707c0.40832,0.70746 0.76631,1.41641 1.08008,2.11719c-0.30968,0.70628 -0.66884,1.42042 -1.08008,2.13281c-0.40504,0.70124 -0.83794,1.35945 -1.28711,1.97266c-0.76594,0.09771 -1.56684,0.15234 -2.39453,0.15234c-0.8306,0 -1.63398,-0.05592 -2.40234,-0.1543c-0.44438,-0.61595 -0.8755,-1.27149 -1.2793,-1.9707c-0.40832,-0.70746 -0.76631,-1.41641 -1.08008,-2.11719c0.30968,-0.70628 0.66884,-1.42042 1.08008,-2.13281c0.40504,-0.70124 0.83794,-1.35945 1.28711,-1.97266c0.76594,-0.09771 1.56684,-0.15234 2.39453,-0.15234zM7.52734,8.30273c-0.17149,0.27054 -0.34422,0.53888 -0.50781,0.82227c-0.18605,0.32229 -0.35493,0.64606 -0.52148,0.96875c-0.14928,-0.4514 -0.28223,-0.89487 -0.38672,-1.32617c0.44304,-0.17456 0.91359,-0.33205 1.41602,-0.46484zM16.47266,8.30273c0.48373,0.12785 0.93637,0.28062 1.36523,0.44727c-0.09323,0.42466 -0.21417,0.8632 -0.35352,1.30859c-0.16237,-0.31132 -0.32432,-0.62245 -0.50391,-0.93359c-0.16352,-0.28316 -0.33699,-0.55135 -0.50781,-0.82227zM19.21289,9.40625c0.14694,0.08624 0.29923,0.17006 0.43359,0.26172c0.974,0.664 1.60352,1.44603 1.60352,2.33203c0,0.886 -0.62952,1.66803 -1.60352,2.33203c-0.12112,0.08262 -0.25925,0.1581 -0.39062,0.23633c-0.21862,-0.83447 -0.50959,-1.70162 -0.875,-2.58789c0.35321,-0.88215 0.6313,-1.74548 0.83203,-2.57422zM4.74414,9.43164c0.21862,0.83447 0.50959,1.70162 0.875,2.58789c-0.35321,0.88215 -0.6313,1.74548 -0.83203,2.57422c-0.14694,-0.08624 -0.29923,-0.17006 -0.43359,-0.26172c-0.974,-0.664 -1.60352,-1.44603 -1.60352,-2.33203c0,-0.886 0.62952,-1.66803 1.60352,-2.33203c0.12112,-0.08262 0.25925,-0.1581 0.39063,-0.23633zM12,9.75c-1.242,0 -2.25,1.008 -2.25,2.25c0,1.242 1.008,2.25 2.25,2.25c1.242,0 2.25,-1.008 2.25,-2.25c0,-1.242 -1.008,-2.25 -2.25,-2.25zM12,11.25c0.414,0 0.75,0.336 0.75,0.75c0,0.414 -0.336,0.75 -0.75,0.75c-0.414,0 -0.75,-0.336 -0.75,-0.75c0,-0.414 0.336,-0.75 0.75,-0.75zM17.50195,13.90625c0.14928,0.4514 0.28223,0.89487 0.38672,1.32617c-0.44304,0.17456 -0.91359,0.33205 -1.41602,0.46484c0.17149,-0.27054 0.34422,-0.53888 0.50781,-0.82227c0.18605,-0.32229 0.35493,-0.64606 0.52148,-0.96875zM6.51563,13.94141c0.16237,0.31133 0.32432,0.62245 0.50391,0.93359c0.16352,0.28316 0.33699,0.55135 0.50781,0.82227c-0.48373,-0.12785 -0.93637,-0.28062 -1.36523,-0.44727c0.09323,-0.42466 0.21417,-0.86321 0.35352,-1.30859zM18.16016,16.72852c0.06335,0.51202 0.09831,1.00533 0.08398,1.45898c-0.039,1.257 -0.35314,2.24745 -1.11914,2.68945c-0.766,0.442 -1.77967,0.22 -2.88867,-0.375c-0.36561,-0.19599 -0.73945,-0.44775 -1.11523,-0.72461c0.71278,-0.6522 1.41637,-1.42852 2.0918,-2.29297c1.0669,-0.17483 2.05901,-0.43023 2.94727,-0.75586zM5.93164,16.76367c0.85873,0.30772 1.81375,0.55014 2.83594,0.71875c0.64771,0.84459 1.31884,1.60244 2,2.25781c-0.28837,0.19525 -0.57517,0.37334 -0.85742,0.51953c-1.092,0.566 -2.09923,0.76427 -2.86523,0.32227c-0.766,-0.443 -1.0983,-1.41358 -1.1543,-2.64258c-0.01668,-0.36942 0.00455,-0.76659 0.04102,-1.17578zM10.89844,17.7168c0.36296,0.0194 0.72852,0.0332 1.10156,0.0332c0.35982,0 0.71202,-0.01513 1.0625,-0.0332c-0.36744,0.39943 -0.73756,0.76477 -1.11133,1.0957c-0.3537,-0.33121 -0.70475,-0.7051 -1.05273,-1.0957z"></path></g></g></svg>